# AST/ASF file generated using VICON BodyLanguage
# -----------------------------------------------
:version 1.10
:name VICON
:units
  mass 1.0
  length 0.45
  angle deg
:documentation
   .ast/.asf automatically generated from VICON data using
   VICON BodyBuilder and BodyLanguage model FoxedUp or BRILLIANT.MOD
:root
   order TX TY TZ RX RY RZ
   axis XYZ
   position 0 0 0  
   orientation 0 0 0 
:bonedata
  begin
     id 1 
     name lhipjoint
     direction 0.677091 -0.635792 0.370561 
     length 2.74323 
     axis 0 0 0  XYZ
  end
  begin
     id 2 
     name lfemur
     direction 0.34202 -0.939693 0  
     length 7.44995  
     axis 0 0 20  XYZ
    dof rx ry rz
    limits (-160.0 20.0)
           (-70.0 70.0)
           (-60.0 70.0)
  end
  begin
     id 3 
     name ltibia
     direction 0.34202 -0.939693 0   
     length 7.34467   
     axis 0 0 20   XYZ
    dof rx
    limits (-10.0 170.0)
  end
  begin
     id 4 
     name lfoot
     direction 0.101953 -0.280114 0.954537   
     length 1.72105   
     axis -90 7.62852e-016 20   XYZ
    dof rx rz
    limits (-45.0 90.0)
           (-70.0 20.0)
  end
  begin
     id 5 
     name ltoes
     direction 1.53537e-011 -4.21915e-011 1   
     length 0.865872   
     axis -90 7.62852e-016 20   XYZ
    dof rx
    limits (-90.0 20.0)
  end
  begin
     id 6 
     name rhipjoint
     direction -0.695735 -0.620586 0.361699   
     length 2.81045  
     axis 0 0 0  XYZ 
  end
  begin
     id 7 
     name rfemur
     direction -0.34202 -0.939693 0   
     length 7.29387   
     axis 0 0 -20   XYZ
    dof rx ry rz
    limits (-160.0 20.0)
           (-70.0 70.0)
           (-70.0 60.0)
  end
  begin
     id 8 
     name rtibia
     direction -0.34202 -0.939693 0   
     length 7.44935   
     axis 0 0 -20   XYZ
    dof rx
    limits (-10.0 170.0)
 end
 begin
     id 9 
     name rfoot
     direction -0.104163 -0.286184 0.952496   
     length 1.77731  
     axis -90 -7.62852e-016 -20   XYZ
    dof rx rz
    limits (-45.0 90.0)
           (-20.0 70.0)
  end
  begin
     id 10 
     name rtoes
     direction -1.5355e-011 -4.21888e-011 1   
     length 0.892424   
     axis -90 -7.62852e-016 -20   XYZ
    dof rx
    limits (-90.0 20.0)
  end
  begin
     id 11 
     name lowerback
     direction 0.0100202 0.997226 -0.0737589   
     length 2.16892   
     axis 0 0 0   XYZ
    dof rx ry rz
    limits (-20.0 45.0)
           (-30.0 30.0)
           (-30.0 30.0)
  end
  begin
     id 12 
     name upperback
     direction 0.00432398 0.999988 -0.00215019   
     length 2.17326   
     axis 0 0 0   XYZ
    dof rx ry rz
    limits (-20.0 45.0)
           (-30.0 30.0)
           (-30.0 30.0)
  end
  begin
     id 13 
     name thorax
     direction -0.00195047 0.999485 0.0320434   
     length 2.18139   
     axis 0 0 0   XYZ
    dof rx ry rz
    limits (-20.0 45.0)
           (-30.0 30.0)
           (-30.0 30.0)
  end
  begin
     id 14 
     name lowerneck
     direction 0.00782762 0.986241 0.165128   
     length 1.88415   
     axis 0 0 0   XYZ
    dof rx ry rz
    limits (-20.0 45.0)
           (-30.0 30.0)
           (-30.0 30.0)
  end
  begin
     id 15 
     name upperneck
     direction 0.00988667 0.981098 -0.193258   
     length 1.9242   
     axis 0 0 0   XYZ
    dof rx ry rz
    limits (-20.0 45.0)
           (-30.0 30.0)
           (-30.0 30.0)
  end
  begin
     id 16
     name head
     direction 0.00252199 0.996513 -0.0833958  
     length 1.93887  
     axis 0 0 0   XYZ
    dof rx ry rz
    limits (-20.0 45.0)
           (-30.0 30.0)
           (-30.0 30.0)
  end
  begin
     id 17 
     name lclavicle
     direction 0.929492 0.368193 -0.0218667  
     length 3.5955  
     axis 0 0 0   XYZ
    dof ry rz
    limits (-20.0 10.0)
           (0.0 20.0)
  end
  begin
     id 18 
     name lhumerus
     direction 1 -4.48972e-011 1.41911e-027   
     length 5.2795   
     axis 180 -30 -90   XYZ
    dof rx ry rz
    limits (-60.0 90.0)
           (-90.0 90.0)
           (-90.0 90.0)
  end
  begin
     id 19
     name lradius
     direction 1 -4.48963e-011 7.05772e-027   
     length 3.53504   
     axis 180 -30 -90   XYZ
    dof rx
    limits (-10.0 170.0)
  end
  begin
     id 20
     name lwrist
     direction 1 -4.48957e-011 9.54866e-027   
     length 1.76752   
     axis -7.69462e-015 90 90   XYZ
    dof ry
    limits (-180.0 0.0)
 end
  begin
     id 21 
     name lhand
     direction 1 -4.48979e-011 1.90973e-026   
     length 0.667948   
     axis -1.21857e-014 90 90   XYZ
    dof rx rz
    limits (-90.0 90.0)
           (-45.0 45.0)
  end
  begin
     id 22 
     name lfingers
     direction 1 -4.48987e-011 3.81946e-026   
     length 0.538517   
     axis -2.43714e-014 90 90   XYZ
    dof rx
    limits (0.0 90.0)
  end
  begin
     id 23
     name lthumb
     direction 0.707107 -6.34962e-011 0.707107   
     length 0.773206   
     axis -90 45 2.85299e-015   XYZ
    dof rx rz
    limits (-45.0 45.0)
           (-45.0 45.0)
  end
  begin
     id 24 
     name rclavicle
     direction -0.898763 0.414256 -0.143584   
     length 3.5176  
     axis 0 0 0   XYZ 
    dof ry rz
    limits (-10.0 20.0)
           (-20.0 0.0)
  end
  begin
     id 25 
     name rhumerus
     direction -1 -4.48971e-011 1.129e-027  
     length 5.25035   
     axis 180 30 90   XYZ
    dof rx ry rz
    limits (-90.0 60.0)
           (-90.0 90.0)
           (-90.0 90.0)
  end
  begin
     id 26 
     name rradius
     direction -1 -4.48955e-011 6.34664e-027   
     length 3.58884   
     axis 180 30 90   XYZ
    dof rx
    limits (-10.0 170.0)
  end
  begin
     id 27 
     name rwrist
     direction -1 -4.48966e-011 9.54866e-027   
     length 1.79442   
     axis -7.69462e-015 -90 -90   XYZ
    dof ry
    limits (-180.0 0.0)
  end
  begin
     id 28
     name rhand
     direction -1 -4.48973e-011 1.90973e-026   
     length 0.779235   
     axis -1.21857e-014 -90 -90   XYZ
    dof rx rz
    limits (-90.0 90.0)
           (-45.0 45.0)
  end
  begin
     id 29
     name rfingers
     direction -1 -4.48984e-011 3.81946e-026   
     length 0.62824   
     axis -2.43714e-014 -90 -90   XYZ
    dof rx
    limits (0.0 90.0)
  end
  begin
     id 30
     name rthumb
     direction -0.707107 -6.34968e-011 0.707107   
     length 0.90203   
     axis -90 -45 -2.85299e-015   XYZ
    dof rx rz
    limits (-45.0 45.0)
           (-45.0 45.0)
  end
:hierarchy
  begin
    root lhipjoint rhipjoint lowerback
    lhipjoint lfemur
    lfemur ltibia
    ltibia lfoot
    lfoot ltoes
    rhipjoint rfemur
    rfemur rtibia
    rtibia rfoot
    rfoot rtoes
    lowerback upperback
    upperback thorax
    thorax lowerneck lclavicle rclavicle
    lowerneck upperneck
    upperneck head
    lclavicle lhumerus
    lhumerus lradius
    lradius lwrist
    lwrist lhand lthumb
    lhand lfingers
    rclavicle rhumerus
    rhumerus rradius
    rradius rwrist
    rwrist rhand rthumb
    rhand rfingers
  end

#!OML:ASF I:\Random Stuff\random\construction\7_22_03\Session 2\subj1.ASF
:FULLY-SPECIFIED
:DEGREES
143
root -18.8259 17.4921 -0.564204 -16.34 85.7141 -22.966
lowerback 6.23823 1.14361 4.65409
upperback 0.432288 1.93356 1.63576
thorax -2.95654 0.925003 -1.08838
lowerneck -23.2083 0.218961 -0.391306
upperneck 38.0104 1.60562 0.16891
head 18.1145 0.972346 0.619562
rclavicle -2.06736e-014 -1.82882e-014
rhumerus -34.4437 2.17394 -75.6738
rradius 40.1617
rwrist 0.117008
rhand -20.2991 18.2922
rfingers 7.12502
rthumb 6.05102 -11.6014
lclavicle -2.06736e-014 -1.82882e-014
lhumerus -32.3235 -4.52666 89.0132
lradius 39.3145
lwrist 22.7701
lhand -20.3827 51.592
lfingers 7.12502
lthumb 5.97032 81.4879
rfemur 5.4797 5.8495 27.6876
rtibia 1.31922
rfoot -8.15251 -16.8441
rtoes -6.7098
lfemur -38.0813 6.21066 -16.359
ltibia 37.129
lfoot -11.3289 3.00086
ltoes -6.2186
144
root -18.7038 17.4964 -0.56807 -17.2025 85.4215 -24.0522
lowerback 6.06724 1.11825 4.69871
upperback 0.374078 1.89875 1.73857
thorax -2.92499 0.908079 -1.00079
lowerneck -23.2323 0.320794 -0.315107
upperneck 38.078 1.77357 0.0739118
head 18.1608 1.0355 0.599705
rclavicle 1.68967e-014 3.97569e-015
rhumerus -34.1274 2.48859 -75.8931
rradius 40.6511
rwrist -0.262491
rhand -21.5838 17.9458
rfingers 7.12502
rthumb 4.81067 -11.9796
lclavicle 1.68967e-014 3.97569e-015
lhumerus -32.4374 -4.45961 89.0229
lradius 38.8485
lwrist 22.6702
lhand -20.5602 51.8029
lfingers 7.12502
lthumb 5.79896 81.7036
rfemur 6.3418 5.79219 27.8139
rtibia 3.33958e-014
rfoot -7.7813 -16.5537
rtoes -6.97073
lfemur -38.1791 4.97104 -15.5239
ltibia 34.3545
lfoot -11.0118 3.55954
ltoes -9.65772
145
root -18.5735 17.4985 -0.57405 -17.8542 85.0813 -24.8869
lowerback 5.90952 1.08678 4.74435
upperback 0.320429 1.85524 1.81675
thorax -2.89561 0.886569 -0.93891
lowerneck -23.1381 0.470769 -0.102778
upperneck 38.0219 1.99808 -0.148226
head 18.1104 1.12164 0.505285
rclavicle -9.74045e-015 -7.15625e-015
rhumerus -33.9215 2.8057 -76.21
rradius 41.1739
rwrist -0.589023
rhand -22.1557 18.111
rfingers 7.12502
rthumb 4.25841 -11.8262
lclavicle -9.74045e-015 -7.15625e-015
lhumerus -32.5213 -4.24408 88.9566
lradius 38.2471
lwrist 22.4398
lhand -20.6678 51.8322
lfingers 7.12502
lthumb 5.69506 81.7357
rfemur 6.64894 5.77622 27.9731
rtibia 1.90833e-014
rfoot -8.13184 -16.437
rtoes -7.33136
lfemur -38.1499 3.51332 -14.4625
ltibia 31.6889
lfoot -11.2073 4.30854
ltoes -13.8485
146
root -18.4382 17.5025 -0.580258 -16.9198 84.8603 -24.1656
lowerback 5.64571 1.04171 4.61841
upperback 0.307505 1.76979 1.82473
thorax -2.76915 0.847823 -0.847647
lowerneck -23.042 0.566544 0.0879596
upperneck 37.8844 2.11009 -0.307925
head 18.0131 1.1673 0.417612
rclavicle 5.1684e-015 -1.59028e-015
rhumerus -33.7054 3.01881 -76.5897
rradius 41.6876
rwrist -0.779981
rhand -22.6414 18.2913
rfingers 7.12502
rthumb 3.78943 -11.6547
lclavicle 5.1684e-015 -1.59028e-015
lhumerus -32.4748 -3.97367 88.7842
lradius 37.5123
lwrist 22.1837
lhand -20.575 51.5136
lfingers 7.12502
lthumb 5.78467 81.4146
rfemur 6.95637 5.69395 27.9329
rtibia -2.22639e-014
rfoot -8.52702 -16.2914
rtoes -7.65522
lfemur -38.1239 1.63731 -13.3346
ltibia 29.1995
lfoot -11.3721 5.56028
ltoes -14.9156
147
root -18.3006 17.5003 -0.590117 -16.1741 84.6853 -23.6352
lowerback 5.30171 0.995722 4.50087
upperback 0.36238 1.67648 1.82247
thorax -2.52706 0.808054 -0.769055
lowerneck -23.1771 0.659134 0.208517
upperneck 37.895 2.19141 -0.313196
head 18.056 1.21198 0.411994
rclavicle 9.64106e-015 7.95139e-016
rhumerus -33.4317 3.0865 -77.0029
rradius 42.1782
rwrist -0.822211
rhand -23.3155 18.3786
rfingers 7.12502
rthumb 3.13842 -11.5781
lclavicle 9.64106e-015 7.95139e-016
lhumerus -32.301 -3.73558 88.6065
lradius 36.7674
lwrist 22.0627
lhand -20.5727 51.5542
lfingers 7.12502
lthumb 5.7869 81.4552
rfemur 7.22075 5.56663 27.8444
rtibia 1.27222e-014
rfoot -8.87447 -16.1161
rtoes -7.80606
lfemur -38.1213 -0.646278 -11.9688
ltibia 26.9344
lfoot -11.5747 7.41328
ltoes -15.6062
148
root -18.1607 17.4932 -0.603657 -16.2385 84.4482 -23.9075
lowerback 5.11561 0.965958 4.43249
upperback 0.309958 1.624 1.85747
thorax -2.48211 0.782955 -0.687769
lowerneck -23.2956 0.734676 0.392165
upperneck 38.0485 2.28952 -0.440254
head 18.1799 1.25845 0.345228
rclavicle -7.7526e-015 -5.56597e-015
rhumerus -33.3798 3.30203 -77.4711
rradius 42.649
rwrist -0.860292
rhand -23.8195 18.6241
rfingers 7.12502
rthumb 2.65166 -11.3392
lclavicle -7.7526e-015 -5.56597e-015
lhumerus -32.3412 -3.49052 88.4864
lradius 36.1335
lwrist 22.1173
lhand -20.8055 51.9848
lfingers 7.12502
lthumb 5.5621 81.8918
rfemur 7.48467 5.47721 27.837
rtibia 2.70347e-014
rfoot -9.18284 -15.8992
rtoes -7.79524
lfemur -38.1419 -3.05977 -10.3343
ltibia 24.931
lfoot -11.9843 9.6151
ltoes -16.0377
149
root -18.0152 17.4821 -0.619307 -16.3889 84.146 -24.1996
lowerback 5.02482 0.978587 4.37121
upperback 0.247695 1.63429 1.87726
thorax -2.49728 0.787623 -0.63268
lowerneck -23.2311 0.738461 0.295573
upperneck 38.052 2.23235 -0.194686
head 18.158 1.25838 0.463499
rclavicle -2.88238e-015 1.19271e-014
rhumerus -33.4596 3.57279 -77.9647
rradius 43.1097
rwrist -0.883288
rhand -24.1709 18.8677
rfingers 7.12502
rthumb 2.3123 -11.0995
lclavicle -2.88238e-015 1.19271e-014
lhumerus -32.4054 -3.21534 88.3539
lradius 35.4891
lwrist 22.1979
lhand -21.0471 52.2101
lfingers 7.12502
lthumb 5.3289 82.1231
rfemur 7.84973 5.43983 27.8645
rtibia -2.70347e-014
rfoot -9.39736 -15.7013
rtoes -8.48261
lfemur -38.1366 -5.65696 -8.51267
ltibia 23.2582
lfoot -12.5378 12.2692
ltoes -16.3557
150
root -17.8637 17.4647 -0.638045 -16.9286 83.8247 -24.7572
lowerback 5.00132 1.0038 4.3481
upperback 0.279952 1.6639 1.87977
thorax -2.45024 0.803925 -0.618318
lowerneck -23.2881 0.800059 0.500982
upperneck 38.0154 2.27193 -0.306595
head 18.1575 1.28454 0.382967
rclavicle 4.67144e-015 1.66979e-014
rhumerus -33.4471 3.82401 -78.4889
rradius 43.5254
rwrist -0.895759
rhand -24.3857 18.9573
rfingers 7.12502
rthumb 2.1049 -11.012
lclavicle 4.67144e-015 1.66979e-014
lhumerus -32.2869 -2.84811 88.1692
lradius 34.7521
lwrist 22.082
lhand -21.0966 51.8683
lfingers 7.12502
lthumb 5.28105 81.7825
rfemur 8.35126 5.39604 27.9235
rtibia 1.90833e-014
rfoot -9.50841 -15.5147
rtoes -9.40779
lfemur -38.058 -8.37293 -6.63776
ltibia 21.9239
lfoot -13.3973 15.1708
ltoes -17.8968
151
root -17.7093 17.4459 -0.660924 -17.8144 83.508 -25.6473
lowerback 4.94915 0.986509 4.32814
upperback 0.382695 1.63296 1.88211
thorax -2.31683 0.792656 -0.600397
lowerneck -23.52 0.93561 0.709365
upperneck 38.0559 2.36265 -0.276519
head 18.2441 1.35013 0.382178
rclavicle -1.47101e-014 1.47101e-014
rhumerus -33.2555 4.24552 -79.1216
rradius 43.8461
rwrist -0.825976
rhand -24.5825 18.94
rfingers 7.12502
rthumb 1.9148 -11.0312
lclavicle -1.47101e-014 1.47101e-014
lhumerus -32.0878 -2.45211 87.9053
lradius 34.1122
lwrist 21.9884
lhand -21.1434 51.5164
lfingers 7.12502
lthumb 5.23592 81.4317
rfemur 8.85274 5.33478 27.9941
rtibia 9.54166e-015
rfoot -9.67835 -15.256
rtoes -9.23676
lfemur -37.9832 -10.7927 -4.93096
ltibia 20.8847
lfoot -14.301 17.9938
ltoes -18.7088
152
root -17.5513 17.4214 -0.688822 -18.5051 83.1416 -26.399
lowerback 4.87125 0.978743 4.30593
upperback 0.439764 1.61414 1.87463
thorax -2.21541 0.785996 -0.592138
lowerneck -23.7378 1.02612 0.743714
upperneck 38.1625 2.368 -0.00879304
head 18.357 1.39366 0.506387
rclavicle 6.75868e-015 3.49861e-014
rhumerus -33.1679 4.61443 -79.7647
rradius 44.1444
rwrist -0.487436
rhand -24.6078 19.4424
rfingers 7.12502
rthumb 1.8904 -10.529
lclavicle 6.75868e-015 3.49861e-014
lhumerus -31.986 -2.12435 87.6429
lradius 33.6139
lwrist 22.1279
lhand -21.2719 51.8145
lfingers 7.12502
lthumb 5.11177 81.7329
rfemur 9.2941 5.33115 28.0511
rtibia 4.45278e-014
rfoot -9.73352 -15.0327
rtoes -10.1902
lfemur -37.9022 -12.6546 -3.55338
ltibia 20.0906
lfoot -15.2147 20.5116
ltoes -19.492
153
root -17.3852 17.3863 -0.719834 -18.8167 82.7787 -26.6938
lowerback 4.91834 1.04349 4.26232
upperback 0.42074 1.70072 1.86177
thorax -2.2587 0.828233 -0.587885
lowerneck -23.7529 0.991207 0.719104
upperneck 38.2221 2.28352 0.0971049
head 18.3924 1.37303 0.543063
rclavicle -6.85807e-015 1.43125e-014
rhumerus -33.3798 4.82136 -80.2848
rradius 44.4596
rwrist -0.0617937
rhand -24.3821 20.1007
rfingers 7.12502
rthumb 2.10829 -9.86866
lclavicle -6.85807e-015 1.43125e-014
lhumerus -32.0209 -1.89947 87.5146
lradius 33.1379
lwrist 22.1739
lhand -21.266 52.3821
lfingers 7.12502
lthumb 5.11752 82.3003
rfemur 9.86999 5.33072 28.0576
rtibia 5.08889e-014
rfoot -9.60802 -14.8963
rtoes -13.055
lfemur -37.6066 -14.0134 -2.65951
ltibia 19.4985
lfoot -16.0041 22.5683
ltoes -19.8614
154
root -17.2101 17.349 -0.752917 -19.4336 82.4245 -27.2544
lowerback 4.06361 1.11243 4.22461
upperback 1.07261 1.7182 1.88582
thorax -1.10991 0.867046 -0.514462
lowerneck -24.2319 0.949694 0.611173
upperneck 37.9006 2.17225 0.166797
head 18.3287 1.304 0.565422
rclavicle -1.37161e-014 1.82882e-014
rhumerus -32.756 4.93053 -80.6674
rradius 45.0813
rwrist 0.404933
rhand -23.9836 19.9917
rfingers 7.12502
rthumb 2.49322 -9.97348
lclavicle -1.37161e-014 1.82882e-014
lhumerus -31.0166 -1.5893 87.4058
lradius 32.5624
lwrist 22.1011
lhand -21.1921 52.7555
lfingers 7.12502
lthumb 5.18882 82.672
rfemur 10.5496 5.30658 28.0889
rtibia 2.54444e-014
rfoot -9.5505 -14.7201
rtoes -15.0709
lfemur -37.0601 -14.3135 -2.46651
ltibia 19.1332
lfoot -16.5321 23.2897
ltoes -19.9879
155
root -17.0275 17.3161 -0.790393 -20.6528 82.0431 -28.4867
lowerback 5.57445 1.1313 4.21426
upperback -0.161865 1.87685 1.90062
thorax -3.2249 0.891423 -0.556399
lowerneck -23.0313 0.786063 0.482936
upperneck 38.6186 1.97607 0.5096
head 18.4208 1.30253 0.7149
rclavicle -7.7526e-015 -7.15625e-015
rhumerus -35.418 5.2419 -81.302
rradius 46.4774
rwrist 1.14285
rhand -23.4864 19.7147
rfingers 7.12502
rthumb 2.97339 -10.2443
lclavicle -7.7526e-015 -7.15625e-015
lhumerus -33.1476 -1.58463 87.3457
lradius 32.4599
lwrist 22.1433
lhand -21.199 52.9765
lfingers 7.12502
lthumb 5.18221 82.8932
rfemur 11.1878 5.28601 28.1888
rtibia 9.54166e-015
rfoot -9.55131 -14.4258
rtoes -16.0188
lfemur -36.3577 -13.3523 -2.92522
ltibia 18.9966
lfoot -16.2755 22.4485
ltoes -20.9252
156
root -16.8351 17.2849 -0.832744 -22.3052 81.671 -30.1232
lowerback 5.48873 1.16688 4.30038
upperback -0.205014 1.92736 1.91719
thorax -3.21732 0.915049 -0.589733
lowerneck -22.9305 0.727024 0.449598
upperneck 38.728 1.81522 0.739313
head 18.4541 1.27277 0.79581
rclavicle -2.41523e-014 1.03368e-014
rhumerus -35.8874 5.36451 -81.7741
rradius 47.0599
rwrist 1.93989
rhand -22.9383 19.8514
rfingers 7.12502
rthumb 3.50267 -10.0996
lclavicle -2.41523e-014 1.03368e-014
lhumerus -33.3529 -1.44143 87.2391
lradius 32.1733
lwrist 22.0058
lhand -21.1303 52.9891
lfingers 7.12502
lthumb 5.24857 82.9041
rfemur 11.8728 5.22679 28.3214
rtibia 1.27222e-014
rfoot -9.39048 -14.087
rtoes -18.1691
lfemur -35.6067 -12.2793 -3.45859
ltibia 19.1041
lfoot -14.8745 21.3763
ltoes -23.3056
157
root -16.6345 17.2555 -0.878029 -23.9954 81.3172 -31.78
lowerback 5.39588 1.19509 4.36619
upperback -0.252584 1.96686 1.94417
thorax -3.21169 0.933585 -0.599928
lowerneck -22.8942 0.643128 0.42363
upperneck 38.8943 1.6287 0.937436
head 18.5397 1.22965 0.857655
rclavicle 6.41081e-015 1.19271e-014
rhumerus -36.1385 5.75989 -82.2578
rradius 47.1635
rwrist 2.56346
rhand -22.4297 20.1723
rfingers 7.12502
rthumb 3.99384 -9.77005
lclavicle 6.41081e-015 1.19271e-014
lhumerus -33.5851 -1.30436 87.1441
lradius 31.9244
lwrist 21.7781
lhand -20.9139 52.8316
lfingers 7.12502
lthumb 5.45752 82.7413
rfemur 12.6021 5.13935 28.4313
rtibia 5.08889e-014
rfoot -9.09177 -13.6551
rtoes -20.5855
lfemur -34.9123 -11.3945 -3.90041
ltibia 19.322
lfoot -12.8779 20.3436
ltoes -25.3476
